<?xml version="1.0" encoding="iso-8859-1"?>
<!-- Uploaded to: SVG Repo, www.svgrepo.com, Generator: SVG Repo Mixer Tools -->
<!DOCTYPE svg PUBLIC "-//W3C//DTD SVG 1.1//EN" "http://www.w3.org/Graphics/SVG/1.1/DTD/svg11.dtd">
<svg fill="#000000" version="1.1" id="Capa_1" xmlns="http://www.w3.org/2000/svg" xmlns:xlink="http://www.w3.org/1999/xlink" 
	 width="800px" height="800px" viewBox="0 0 429.294 429.294"
	 xml:space="preserve">
<g>
	<g>
		<path d="M279.898,219.602c-10.42,0-18.899,8.475-18.899,18.899c0,10.426,8.479,18.9,18.899,18.9c10.421,0,18.9-8.475,18.9-18.9
			C298.798,228.077,290.319,219.602,279.898,219.602z"/>
		<path d="M400.501,346.481v-38.892c0-14.17-4.44-24.511-13.194-30.733c-8.985-6.397-20.107-6.561-28.213-5.475V51.3
			c0-28.284-23.013-51.3-51.3-51.3H120.598c-28.284,0-51.3,23.016-51.3,51.3v220.055c-7.868-1.049-18.544-0.844-27.269,5.321
			c-8.775,6.191-13.231,16.59-13.231,30.913v37.299c-13.453,3.591-23.404,15.842-23.404,30.406c0,4.478,3.623,8.101,8.1,8.101
			s8.1-3.623,8.1-8.101c0-8.442,6.863-15.303,15.303-15.303c8.44,0,15.304,6.86,15.304,15.303c0,4.478,3.623,8.101,8.1,8.101
			s8.1-3.623,8.1-8.101c0-14.564-9.951-26.82-23.404-30.406v-37.299c0-8.728,2.133-14.666,6.339-17.655
			c4.915-3.491,12.474-3.154,17.961-2.152v44.313c0,28.281,23.016,51.3,51.3,51.3h34.193v37.8c0,4.478,3.623,8.1,8.1,8.1
			s8.1-3.622,8.1-8.1v-37.8h76.507v37.8c0,4.478,3.622,8.1,8.1,8.1s8.1-3.622,8.1-8.1v-37.8h44.097c28.287,0,51.3-23.019,51.3-51.3
			v-44.287c5.738-1.038,13.728-1.397,18.853,2.268c4.214,3.022,6.35,8.907,6.35,17.514v38.892
			c-13.452,3.591-23.403,15.847-23.403,30.406c0,4.478,3.623,8.101,8.1,8.101c4.478,0,8.101-3.623,8.101-8.101
			c0-8.442,6.86-15.304,15.303-15.304c8.443,0,15.304,6.861,15.304,15.304c0,4.478,3.623,8.101,8.101,8.101
			c4.477,0,8.1-3.623,8.1-8.101C423.905,362.328,413.955,350.072,400.501,346.481z M148.5,333.001c-16.379,0-29.7-13.32-29.7-29.699
			c0-16.38,13.321-29.7,29.7-29.7s29.7,13.32,29.7,29.7C178.2,319.681,164.874,333.001,148.5,333.001z M148.5,268.202
			c-16.379,0-29.7-13.32-29.7-29.7c0-16.379,13.321-29.7,29.7-29.7s29.7,13.321,29.7,29.7
			C178.2,254.881,164.874,268.202,148.5,268.202z M148.5,203.402c-16.379,0-29.7-13.321-29.7-29.7c0-16.379,13.321-29.7,29.7-29.7
			s29.7,13.321,29.7,29.7C178.2,190.081,164.874,203.402,148.5,203.402z M214.196,333.001c-16.379,0-29.7-13.32-29.7-29.699
			c0-16.38,13.32-29.7,29.7-29.7s29.7,13.32,29.7,29.7C243.896,319.681,230.576,333.001,214.196,333.001z M214.196,268.202
			c-16.379,0-29.7-13.32-29.7-29.7c0-16.379,13.32-29.7,29.7-29.7s29.7,13.321,29.7,29.7
			C243.896,254.881,230.576,268.202,214.196,268.202z M214.196,203.402c-16.379,0-29.7-13.321-29.7-29.7
			c0-16.379,13.32-29.7,29.7-29.7s29.7,13.321,29.7,29.7C243.896,190.081,230.576,203.402,214.196,203.402z M279.898,333.001
			c-16.379,0-29.7-13.32-29.7-29.699c0-16.38,13.321-29.7,29.7-29.7c16.38,0,29.7,13.32,29.7,29.7
			C309.598,319.681,296.278,333.001,279.898,333.001z M279.898,268.202c-16.379,0-29.7-13.32-29.7-29.7
			c0-16.379,13.321-29.7,29.7-29.7c16.38,0,29.7,13.321,29.7,29.7C309.598,254.881,296.278,268.202,279.898,268.202z
			 M279.898,203.402c-16.379,0-29.7-13.321-29.7-29.7c0-16.379,13.321-29.7,29.7-29.7c16.38,0,29.7,13.321,29.7,29.7
			C309.598,190.081,296.278,203.402,279.898,203.402z M312.298,110.175c0,4.478-3.623,8.1-8.101,8.1H124.2
			c-4.477,0-8.1-3.623-8.1-8.1V51.3c0-4.478,3.623-8.101,8.1-8.101h180.004c4.477,0,8.1,3.623,8.1,8.101v58.875H312.298z"/>
		<path d="M279.898,154.802c-10.42,0-18.899,8.477-18.899,18.9s8.479,18.9,18.899,18.9c10.421,0,18.9-8.478,18.9-18.9
			S290.319,154.802,279.898,154.802z"/>
		<path d="M132.3,102.076h163.803V59.4H132.3V102.076z M255.598,70.833c5.474,0,9.903,4.438,9.903,9.904
			c0,5.474-4.43,9.904-9.903,9.904s-9.903-4.43-9.903-9.904C245.7,75.271,250.135,70.833,255.598,70.833z M172.8,70.833
			c5.471,0,9.904,4.438,9.904,9.904c0,5.474-4.433,9.904-9.904,9.904s-9.903-4.43-9.903-9.904
			C162.896,75.271,167.329,70.833,172.8,70.833z"/>
		<path d="M148.5,219.602c-10.423,0-18.9,8.475-18.9,18.899c0,10.426,8.477,18.9,18.9,18.9c10.423,0,18.9-8.475,18.9-18.9
			C167.4,228.077,158.917,219.602,148.5,219.602z"/>
		<path d="M214.196,219.602c-10.423,0-18.9,8.475-18.9,18.899c0,10.426,8.477,18.9,18.9,18.9c10.425,0,18.9-8.475,18.9-18.9
			C233.096,228.077,224.622,219.602,214.196,219.602z"/>
		<path d="M148.5,154.802c-10.423,0-18.9,8.477-18.9,18.9s8.477,18.9,18.9,18.9c10.423,0,18.9-8.478,18.9-18.9
			S158.917,154.802,148.5,154.802z"/>
		<path d="M214.196,154.802c-10.423,0-18.9,8.477-18.9,18.9s8.477,18.9,18.9,18.9c10.425,0,18.9-8.478,18.9-18.9
			S224.622,154.802,214.196,154.802z"/>
		<path d="M214.196,284.402c-10.423,0-18.9,8.475-18.9,18.9c0,10.425,8.477,18.899,18.9,18.899c10.425,0,18.9-8.475,18.9-18.899
			C233.096,292.876,224.622,284.402,214.196,284.402z"/>
		<path d="M148.5,284.402c-10.423,0-18.9,8.475-18.9,18.9c0,10.425,8.477,18.899,18.9,18.899c10.423,0,18.9-8.475,18.9-18.899
			C167.4,292.876,158.917,284.402,148.5,284.402z"/>
		<path d="M279.898,284.402c-10.42,0-18.899,8.475-18.899,18.9c0,10.425,8.479,18.899,18.899,18.899
			c10.421,0,18.9-8.475,18.9-18.899C298.798,292.876,290.319,284.402,279.898,284.402z"/>
	</g>
</g>
</svg>